<svg fill="#FFFFFF" xmlns="http://www.w3.org/2000/svg"  viewBox="0 0 48 48" width="48px" height="48px"><path d="M 8.5 8 C 6.019 8 4 10.019 4 12.5 L 4 35.5 C 4 37.981 6.019 40 8.5 40 L 23.003906 40 C 22.607906 39.053 22.332922 38.045 22.169922 37 L 8.5 37 C 7.673 37 7 36.327 7 35.5 L 7 12.5 C 7 11.673 7.673 11 8.5 11 L 16.052734 11 C 16.636734 11 17.204297 11.205125 17.654297 11.578125 L 22.541016 15.652344 C 22.810016 15.877344 23.149 16 23.5 16 L 39.5 16 C 40.327 16 41 16.673 41 17.5 L 41 23.478516 C 42.103 24.055516 43.111 24.785625 44 25.640625 L 44 17.5 C 44 15.019 41.981 13 39.5 13 L 24.042969 13 L 19.572266 9.2734375 C 18.585266 8.4524375 17.335734 8 16.052734 8 L 8.5 8 z M 35 24 C 28.925 24 24 28.925 24 35 C 24 41.075 28.925 46 35 46 C 41.075 46 46 41.075 46 35 C 46 28.925 41.075 24 35 24 z M 35 27 C 35.552 27 36 27.448 36 28 L 36 34 L 42 34 C 42.552 34 43 34.448 43 35 C 43 35.552 42.552 36 42 36 L 36 36 L 36 42 C 36 42.552 35.552 43 35 43 C 34.448 43 34 42.552 34 42 L 34 36 L 28 36 C 27.448 36 27 35.552 27 35 C 27 34.448 27.448 34 28 34 L 34 34 L 34 28 C 34 27.448 34.448 27 35 27 z"/></svg>