<svg fill="#FFFFFF" xmlns="http://www.w3.org/2000/svg"  viewBox="0 0 32 32" width="32px" height="32px"><path d="M 4 4 L 4 28 L 17.509766 28 C 17.055766 27.397 16.692547 26.725 16.435547 26 L 6 26 L 6 12 L 26 12 L 26 16.435547 C 26.725 16.692547 27.397 17.056766 28 17.509766 L 28 4 L 4 4 z M 6 6 L 26 6 L 26 10 L 6 10 L 6 6 z M 7 7 L 7 9 L 9 9 L 9 7 L 7 7 z M 10 7 L 10 9 L 12 9 L 12 7 L 10 7 z M 13 7 L 13 9 L 25 9 L 25 7 L 13 7 z M 23.5 18 C 20.5 18 18 20.5 18 23.5 C 18 26.5 20.5 29 23.5 29 C 24.7 29 25.699609 28.6 26.599609 28 L 30.599609 32 L 32 30.599609 L 28 26.599609 C 28.6 25.699609 29 24.6 29 23.5 C 29 20.5 26.5 18 23.5 18 z M 23.5 20 C 25.4 20 27 21.6 27 23.5 C 27 25.4 25.4 27 23.5 27 C 21.6 27 20 25.4 20 23.5 C 20 21.6 21.6 20 23.5 20 z"/></svg>