<svg fill="#FFFFFF" xmlns="http://www.w3.org/2000/svg"  viewBox="0 0 64 64" width="48px" height="48px"><path d="M 13 10 C 11.896 10 11 10.896 11 12 L 11 17 C 11 17.432 11.140391 17.853219 11.400391 18.199219 L 26 37.667969 L 26 51 C 26 51.757 26.427469 52.450063 27.105469 52.789062 L 35.105469 56.789062 C 35.830469 57.054063 37.134937 57.177359 38.210938 56.443359 C 37.001938 55.537359 35.64 53.955672 35 52.263672 L 30 49.763672 L 30 40 L 34 40 L 36 40 L 36.050781 40 L 38 37.667969 L 52.599609 18.199219 C 52.858609 17.853219 53 17.433 53 17 L 53 12 C 53 10.896 52.104 10 51 10 L 13 10 z M 15 14 L 49 14 L 49 16.332031 L 34.400391 35.800781 C 34.352787 35.864375 34.312926 35.93173 34.273438 36 L 29.726562 36 C 29.687007 35.931681 29.647397 35.864375 29.599609 35.800781 L 15 16.332031 L 15 14 z M 47.001953 37 C 44.442703 37 41.884141 37.977187 39.931641 39.929688 C 36.026641 43.834687 36.026641 50.165312 39.931641 54.070312 C 43.836641 57.975313 50.167266 57.975313 54.072266 54.070312 C 57.977266 50.165313 57.977266 43.834688 54.072266 39.929688 C 52.119766 37.977187 49.561203 37 47.001953 37 z M 43.466797 42.464844 C 43.722672 42.464719 43.978328 42.562313 44.173828 42.757812 L 47.001953 45.585938 L 49.830078 42.757812 C 50.220078 42.367812 50.853141 42.366813 51.244141 42.757812 C 51.635141 43.148812 51.634141 43.781875 51.244141 44.171875 L 48.416016 47 L 51.244141 49.828125 C 51.635141 50.219125 51.634141 50.852187 51.244141 51.242188 C 50.854141 51.632188 50.221078 51.633187 49.830078 51.242188 L 47.001953 48.414062 L 44.173828 51.242188 C 43.783828 51.632188 43.150766 51.633187 42.759766 51.242188 C 42.368766 50.851188 42.369766 50.218125 42.759766 49.828125 L 45.587891 47 L 42.759766 44.171875 C 42.368766 43.780875 42.369766 43.147813 42.759766 42.757812 C 42.954766 42.562812 43.210922 42.464969 43.466797 42.464844 z"/></svg>