<svg fill="#FFFFFF" xmlns="http://www.w3.org/2000/svg"  viewBox="0 0 64 64" width="48px" height="48px"><path d="M 13.5625 12 C 9.3925 12 6 15.393453 6 19.564453 L 6 44.435547 C 6 48.606547 9.3925 52 13.5625 52 L 38.4375 52 C 42.6075 52 46 48.606547 46 44.435547 L 46 40.105469 C 46 39.001469 45.104 38.105469 44 38.105469 C 42.896 38.105469 42 39.001469 42 40.105469 L 42 44.435547 C 42 46.400547 40.400547 48 38.435547 48 L 13.5625 48 C 11.5985 48 10 46.400547 10 44.435547 L 10 19.564453 C 10 17.599453 11.5985 16 13.5625 16 L 38.4375 16 C 40.4015 16 42 17.599453 42 19.564453 L 42 24.105469 C 42 25.209469 42.896 26.105469 44 26.105469 C 45.104 26.105469 46 25.209469 46 24.105469 L 46 19.564453 C 46 15.393453 42.606547 12 38.435547 12 L 13.5625 12 z M 51.091797 25.949219 C 50.533094 25.926156 50 26.361891 50 26.994141 L 50 30 L 32 30 C 30.896 30 30 30.896 30 32 C 30 33.104 30.896 34 32 34 L 50 34 L 50 37.003906 C 50 37.847906 50.947625 38.343281 51.640625 37.863281 L 58.873047 32.859375 C 59.474047 32.444375 59.474047 31.556625 58.873047 31.140625 L 51.640625 26.134766 C 51.467375 26.015016 51.278031 25.956906 51.091797 25.949219 z"/></svg>