<svg fill="#FFFFFF" xmlns="http://www.w3.org/2000/svg"  viewBox="0 0 64 64" width="48px" height="48px"><path d="M 15.5625 12 C 11.3925 12 8 15.393453 8 19.564453 L 8 44.435547 C 8 48.606547 11.3925 52 15.5625 52 L 40.4375 52 C 44.6075 52 48 48.606547 48 44.435547 L 48 40.105469 C 48 39.001469 47.104 38.105469 46 38.105469 C 44.896 38.105469 44 39.001469 44 40.105469 L 44 44.435547 C 44 46.400547 42.400547 48 40.435547 48 L 15.5625 48 C 13.5985 48 12 46.400547 12 44.435547 L 12 19.564453 C 12 17.599453 13.5985 16 15.5625 16 L 40.4375 16 C 42.4015 16 44 17.599453 44 19.564453 L 44 24.105469 C 44 25.209469 44.896 26.105469 46 26.105469 C 47.104 26.105469 48 25.209469 48 24.105469 L 48 19.564453 C 48 15.393453 44.606547 12 40.435547 12 L 15.5625 12 z M 36.232422 25.949219 C 36.046188 25.957031 35.856844 26.016719 35.683594 26.136719 L 28.451172 31.140625 C 27.850172 31.555625 27.850172 32.443375 28.451172 32.859375 L 35.683594 37.867188 C 36.376594 38.346187 37.324219 37.850812 37.324219 37.007812 L 37.324219 34 L 55.324219 34 C 56.429219 34 57.324219 33.104 57.324219 32 C 57.324219 30.896 56.428219 30 55.324219 30 L 37.324219 30 L 37.324219 26.996094 C 37.324219 26.363094 36.791125 25.925781 36.232422 25.949219 z"/></svg>