<svg fill="#FFFFFF" xmlns="http://www.w3.org/2000/svg"  viewBox="0 0 50 50" width="50px" height="50px"><path d="M 42 3 C 40.644531 3 39.519531 3.460938 38.695313 4.164063 C 37.871094 4.871094 37.320313 5.761719 36.828125 6.652344 C 36.214844 7.753906 35.679688 8.847656 34.988281 9.746094 C 33.625 8.65625 31.890625 8 30 8 C 29.734375 8 29.480469 8.105469 29.292969 8.292969 C 29.289063 8.296875 29.285156 8.300781 29.28125 8.304688 L 25.933594 11.652344 C 23.3125 10.398438 20.304688 9.71875 17.082031 10.109375 L 17.078125 10.109375 C 9.3125 10.964844 3.066406 17.210938 2.109375 24.875 C 2.105469 24.878906 2.105469 24.882813 2.109375 24.886719 C 0.835938 35.894531 10.105469 45.164063 21.113281 43.890625 C 21.117188 43.894531 21.121094 43.894531 21.125 43.890625 C 28.792969 42.933594 35.035156 36.675781 35.992188 28.820313 C 35.992188 28.8125 35.996094 28.800781 35.996094 28.792969 C 36.289063 25.679688 35.6875 22.675781 34.441406 19.972656 L 37.707031 16.707031 C 37.894531 16.519531 38 16.265625 38 16 C 38 14.195313 37.402344 12.539063 36.398438 11.203125 C 37.367188 10.03125 37.976563 8.699219 38.574219 7.625 C 39.03125 6.800781 39.480469 6.125 39.992188 5.6875 C 40.503906 5.25 41.054688 5 42 5 C 43.199219 5 44.015625 5.300781 44.609375 5.777344 C 45.207031 6.253906 45.613281 6.941406 45.84375 7.867188 C 46.296875 9.714844 45.917969 12.453125 44.777344 15.21875 C 44.773438 15.21875 44.773438 15.222656 44.773438 15.226563 C 43.46875 18.460938 41.734375 21.003906 40.195313 23.6875 C 38.65625 26.375 37.320313 29.222656 37.003906 32.914063 C 36.683594 36.609375 38.484375 39.59375 40.089844 41.511719 L 36 42 L 39.800781 43.902344 L 36.902344 48 L 41.402344 45.5 L 43.300781 48 L 43.300781 44.800781 L 48 46.402344 L 44.800781 43.300781 L 47.402344 41.402344 L 44.199219 41.402344 L 44.199219 35 L 41.617188 40.164063 C 40.257813 38.507813 38.746094 35.996094 38.996094 33.085938 C 39.28125 29.777344 40.445313 27.277344 41.929688 24.6875 C 43.414063 22.097656 45.226563 19.445313 46.625 15.984375 C 47.878906 12.945313 48.402344 9.886719 47.78125 7.382813 C 47.472656 6.132813 46.851563 5.007813 45.859375 4.21875 C 44.871094 3.425781 43.550781 3 42 3 Z M 31.246094 10.246094 C 32.054688 10.414063 32.785156 10.742188 33.421875 11.1875 C 32.984375 11.5 32.875 12.097656 33.167969 12.546875 C 33.464844 12.992188 34.058594 13.128906 34.515625 12.855469 C 34.632813 12.785156 34.734375 12.703125 34.84375 12.625 C 35.269531 13.253906 35.589844 13.964844 35.753906 14.753906 C 33.441406 14.269531 31.730469 12.558594 31.246094 10.246094 Z M 29.292969 11.121094 C 30.035156 13.835938 32.164063 15.964844 34.878906 16.707031 L 32.90625 18.679688 C 29.859375 18.492188 27.507813 16.140625 27.320313 13.09375 Z M 18.46875 12 C 20.964844 11.898438 23.300781 12.46875 25.339844 13.488281 C 25.714844 17.332031 28.789063 20.359375 32.652344 20.667969 C 33.78125 23.066406 34.265625 25.78125 34.003906 28.59375 C 33.152344 35.527344 27.609375 41.0625 20.886719 41.90625 C 20.882813 41.90625 20.882813 41.90625 20.878906 41.90625 C 11.09375 43.03125 2.96875 34.90625 4.09375 25.121094 C 4.09375 25.117188 4.09375 25.117188 4.09375 25.113281 C 4.941406 18.386719 10.484375 12.839844 17.308594 12.09375 C 17.3125 12.09375 17.316406 12.09375 17.320313 12.09375 C 17.707031 12.046875 18.089844 12.011719 18.46875 12 Z"/></svg>