<svg fill="#FFFFFF" xmlns="http://www.w3.org/2000/svg"  viewBox="0 0 50 50" width="50px" height="50px"><path d="M 2 3 L 2 7 L 48 7 L 48 3 Z M 2 13 L 2 17 L 31 17 L 31 13 Z M 47.09375 14 C 46.800781 13.972656 46.496094 14.066406 46.28125 14.28125 L 36.28125 24.28125 C 35.890625 24.671875 35.890625 25.328125 36.28125 25.71875 L 46.28125 35.71875 C 46.472656 35.910156 46.738281 36 47 36 C 47.128906 36 47.25 35.988281 47.375 35.9375 C 47.75 35.785156 48 35.402344 48 35 L 48 15 C 48 14.597656 47.75 14.21875 47.375 14.0625 C 47.28125 14.023438 47.191406 14.007813 47.09375 14 Z M 2 23 L 2 27 L 31 27 L 31 23 Z M 2 33 L 2 37 L 31 37 L 31 33 Z M 2 43 L 2 47 L 48 47 L 48 43 Z"/></svg>