<svg fill="#FFFFFF" xmlns="http://www.w3.org/2000/svg"  viewBox="0 0 64 64" width="48px" height="48px"><path d="M41.824 41.181c.323.718.193 1.56-.329 2.148l-8 9C33.115 52.756 32.571 53 32 53s-1.115-.244-1.495-.671l-8-9c-.522-.588-.652-1.43-.329-2.148C22.498 40.462 23.213 40 24 40h16C40.787 40 41.502 40.462 41.824 41.181zM53 35H11c-1.104 0-2-.896-2-2s.896-2 2-2h42c1.104 0 2 .896 2 2S54.104 35 53 35zM53 26H11c-1.104 0-2-.896-2-2s.896-2 2-2h42c1.104 0 2 .896 2 2S54.104 26 53 26zM53 17H11c-1.104 0-2-.896-2-2s.896-2 2-2h42c1.104 0 2 .896 2 2S54.104 17 53 17z"/></svg>