<svg fill="#FFFFFF" xmlns="http://www.w3.org/2000/svg"  viewBox="0 0 64 64" width="48px" height="48px"><path d="M 29.304688 6 C 28.628562 5.99325 28 6.5305156 28 7.2910156 L 28 10.371094 C 17.7734 12.258417 10 21.235533 10 32 C 10 44.131 19.869 54 32 54 C 44.131 54 54 44.131 54 32 C 54 25.04 50.650969 18.41625 45.042969 14.28125 C 44.153969 13.62525 42.899094 13.815125 42.246094 14.703125 C 41.590094 15.592125 41.779922 16.845953 42.669922 17.501953 C 47.259922 20.885953 50 26.306 50 32 C 50 41.925 41.925 50 32 50 C 22.075 50 14 41.925 14 32 C 14 23.451418 19.9965 16.290829 28 14.464844 L 28 16.708984 C 28 17.722984 29.116609 18.340781 29.974609 17.800781 L 37.316406 13.177734 C 38.184406 12.631734 38.184406 11.366312 37.316406 10.820312 L 29.974609 6.1992188 C 29.760109 6.0642188 29.530062 6.00225 29.304688 6 z"/></svg>