<svg fill="#FFFFFF" xmlns="http://www.w3.org/2000/svg"  viewBox="0 0 50 50" width="50px" height="50px"><path d="M 10.5 12 C 8.57 12 7 13.57 7 15.5 L 7 32.5 C 7 34.43 8.57 36 10.5 36 L 33.009766 36 C 33.029766 35.66 33.070625 35.33 33.140625 35 L 10.5 35 C 9.12 35 8 33.88 8 32.5 L 8 15.5 C 8 14.12 9.12 13 10.5 13 L 39.5 13 C 40.88 13 42 14.12 42 15.5 L 42 28.009766 C 42.34 28.029766 42.67 28.070625 43 28.140625 L 43 15.5 C 43 13.57 41.43 12 39.5 12 L 10.5 12 z M 16 22 C 14.895 22 14 22.895 14 24 C 14 25.105 14.895 26 16 26 C 17.105 26 18 25.105 18 24 C 18 22.895 17.105 22 16 22 z M 25 22 C 23.895 22 23 22.895 23 24 C 23 25.105 23.895 26 25 26 C 26.105 26 27 25.105 27 24 C 27 22.895 26.105 22 25 22 z M 34 22 C 32.895 22 32 22.895 32 24 C 32 25.105 32.895 26 34 26 C 35.105 26 36 25.105 36 24 C 36 22.895 35.105 22 34 22 z M 41.5 30 C 37.91 30 35 32.91 35 36.5 C 35 40.09 37.91 43 41.5 43 C 45.09 43 48 40.09 48 36.5 C 48 32.91 45.09 30 41.5 30 z M 41.5 32 C 43.98 32 46 34.02 46 36.5 C 46 38.98 43.98 41 41.5 41 C 39.02 41 37 38.98 37 36.5 C 37 36.22 37.22 36 37.5 36 C 37.78 36 38 36.22 38 36.5 C 38 38.43 39.57 40 41.5 40 C 43.43 40 45 38.43 45 36.5 C 45 34.57 43.43 33 41.5 33 C 40.81 33 40.149844 33.200547 39.589844 33.560547 L 40.119141 34.089844 C 40.209141 34.179844 40.159297 34.339141 40.029297 34.369141 L 37.890625 34.779297 C 37.770625 34.809297 37.669453 34.699844 37.689453 34.589844 L 38.109375 32.449219 C 38.129375 32.309219 38.290625 32.269375 38.390625 32.359375 L 38.880859 32.849609 C 38.960859 32.791609 39.042 32.737547 39.125 32.685547 C 39.832 32.240547 40.65 32 41.5 32 z"/></svg>