<svg fill="#FFFFFF" xmlns="http://www.w3.org/2000/svg"  viewBox="0 0 64 64" width="48px" height="48px"><path d="M 32.001953 9.9902344 C 28.429824 9.985166 24.890391 10.860391 21.650391 12.587891 C 16.465391 15.351891 12.665125 19.969797 10.953125 25.591797 C 8.326125 34.218797 11.161781 43.454094 18.175781 49.121094 C 18.545781 49.419094 18.990641 49.564453 19.431641 49.564453 C 20.014641 49.564453 20.593281 49.310313 20.988281 48.820312 C 21.682281 47.961312 21.548453 46.703766 20.689453 46.009766 C 14.950453 41.373766 12.630297 33.814859 14.779297 26.755859 C 16.179297 22.156859 19.28825 18.377234 23.53125 16.115234 C 27.77325 13.854234 32.644188 13.38025 37.242188 14.78125 C 40.839754 15.877032 43.956167 18.059559 46.226562 21 L 43 21 C 41.896 21 41 21.896 41 23 C 41 24.104 41.896 25 43 25 L 51 25 C 52.104 25 53 24.104 53 23 L 53 15 C 53 13.896 52.104 13 51 13 C 49.896 13 49 13.896 49 15 L 49 18.068359 C 46.261299 14.721495 42.603282 12.232222 38.408203 10.955078 C 36.299203 10.312703 34.14523 9.9932754 32.001953 9.9902344 z M 45.074219 44.830078 C 44.436844 44.774328 43.779 44.960797 43.25 45.404297 C 42.192 46.291297 42.053406 47.869734 42.941406 48.927734 C 43.828406 49.985734 45.406844 50.121375 46.464844 49.234375 C 47.522844 48.347375 47.659484 46.770891 46.771484 45.712891 C 46.327984 45.184391 45.711594 44.885828 45.074219 44.830078 z M 25.033203 48.296875 C 24.060313 48.346703 23.164547 48.966703 22.810547 49.939453 C 22.337547 51.236453 23.006688 52.670578 24.304688 53.142578 C 25.601688 53.614578 27.035812 52.945437 27.507812 51.648438 C 27.979813 50.351438 27.310672 48.917313 26.013672 48.445312 C 25.689422 48.327312 25.3575 48.280266 25.033203 48.296875 z M 38.96875 48.296875 C 38.644406 48.280391 38.310828 48.327062 37.986328 48.445312 C 36.689328 48.917313 36.020187 50.351438 36.492188 51.648438 C 36.964188 52.945438 38.398313 53.614578 39.695312 53.142578 C 40.992312 52.670578 41.661453 51.236453 41.189453 49.939453 C 40.835453 48.965953 39.941781 48.346328 38.96875 48.296875 z M 32 49.5 C 30.619 49.5 29.5 50.619 29.5 52 C 29.5 53.381 30.619 54.5 32 54.5 C 33.381 54.5 34.5 53.381 34.5 52 C 34.5 50.619 33.381 49.5 32 49.5 z"/></svg>