<svg fill="#FFFFFF" xmlns="http://www.w3.org/2000/svg"  viewBox="0 0 50 50" width="50px" height="50px"><path d="M 25 11 C 13.312 11 4 21.054 4 25 C 4 28.946 13.312 39 25 39 C 36.688 39 46 28.946 46 25 C 46 21.054 36.688 11 25 11 z M 25 12 C 36.477 12 45 21.954 45 25 C 45 28.046 36.477 38 25 38 C 13.523 38 5 28.046 5 25 C 5 21.954 13.523 12 25 12 z M 25 16 C 20.029 16 16 20.029 16 25 C 16 29.971 20.029 34 25 34 C 29.971 34 34 29.971 34 25 C 34 20.029 29.971 16 25 16 z M 25 22 C 26.657 22 28 23.343 28 25 C 28 26.657 26.657 28 25 28 C 23.343 28 22 26.657 22 25 C 22 23.343 23.343 22 25 22 z"/></svg>