<svg fill="#FFFFFF" xmlns="http://www.w3.org/2000/svg"  viewBox="0 0 48 48" width="48px" height="48px"><path d="M 23.970703 6 A 2.0002 2.0002 0 0 0 22.585938 6.5859375 L 16.585938 12.585938 A 2.0002 2.0002 0 1 0 19.414062 15.414062 L 22 12.828125 L 22 31 A 2.0002 2.0002 0 1 0 26 31 L 26 12.828125 L 28.585938 15.414062 A 2.0002 2.0002 0 1 0 31.414062 12.585938 L 25.414062 6.5859375 A 2.0002 2.0002 0 0 0 23.970703 6 z M 12 17 C 8.7099679 17 6 19.709968 6 23 L 6 36 C 6 39.290032 8.7099679 42 12 42 L 36 42 C 39.290032 42 42 39.290032 42 36 L 42 23 C 42 19.709968 39.290032 17 36 17 L 35 17 A 2.0002 2.0002 0 1 0 35 21 L 36 21 C 37.127968 21 38 21.872032 38 23 L 38 36 C 38 37.127968 37.127968 38 36 38 L 12 38 C 10.872032 38 10 37.127968 10 36 L 10 23 C 10 21.872032 10.872032 21 12 21 L 13 21 A 2.0002 2.0002 0 1 0 13 17 L 12 17 z"/></svg>