<svg fill="#1A1A1A" xmlns="http://www.w3.org/2000/svg"  viewBox="0 0 72 72" width="64px" height="64px"><path d="M 17.529297 13.808594 C 16.505797 13.792219 15.476594 14.167547 14.683594 14.935547 C 13.096594 16.471547 13.055797 19.004797 14.591797 20.591797 L 29.511719 36 L 14.591797 51.408203 C 13.055797 52.995203 13.096594 55.527453 14.683594 57.064453 C 15.459594 57.816453 16.461844 58.191406 17.464844 58.191406 C 18.509844 58.191406 19.554844 57.784609 20.339844 56.974609 L 37.953125 38.78125 C 39.454125 37.23025 39.454125 34.767797 37.953125 33.216797 L 20.339844 15.025391 C 19.570844 14.231891 18.552797 13.824969 17.529297 13.808594 z M 36.984375 13.808594 C 35.960875 13.792219 34.931672 14.167547 34.138672 14.935547 C 32.551672 16.471547 32.510875 19.004797 34.046875 20.591797 L 48.96875 36 L 34.046875 51.408203 C 32.510875 52.995203 32.551672 55.527453 34.138672 57.064453 C 34.914672 57.816453 35.918875 58.191406 36.921875 58.191406 C 37.966875 58.191406 39.009922 57.784609 39.794922 56.974609 L 57.408203 38.78125 C 58.909203 37.23025 58.909203 34.767797 57.408203 33.216797 L 39.794922 15.025391 C 39.025922 14.231891 38.007875 13.824969 36.984375 13.808594 z"/></svg>