<svg fill="#1A1A1A" xmlns="http://www.w3.org/2000/svg"  viewBox="0 0 26 26" width="26px" height="26px"><path d="M 13.5 0 C 6.601563 0 1 5.601563 1 12.5 C 1 19.398438 6.601563 25 13.5 25 C 20.398438 25 26 19.398438 26 12.5 C 26 5.601563 20.398438 0 13.5 0 Z M 13.5 1.8125 C 19.398438 1.8125 24.1875 6.601563 24.1875 12.5 C 24.1875 18.398438 19.398438 23.1875 13.5 23.1875 C 7.601563 23.1875 2.8125 18.398438 2.8125 12.5 C 2.8125 6.601563 7.601563 1.8125 13.5 1.8125 Z M 11.90625 7 L 6.40625 12.5 L 11.90625 18 L 14.6875 18 L 10.6875 14 L 20 14 L 20 11 L 10.6875 11 L 14.6875 7 Z"/></svg>