<?xml version="1.0"?><svg fill="#1A1A1A" xmlns="http://www.w3.org/2000/svg"  viewBox="0 0 24 24" width="24px" height="24px">    <path d="M 5 3 C 3.897 3 3 3.897 3 5 L 3 11.738281 L 3.2988281 11.626953 L 5 10.988281 L 5 5 L 9.9882812 5 L 10.626953 3.2988281 L 10.738281 3 L 5 3 z M 14.261719 3 L 14.373047 3.2988281 L 15.119141 5 L 19 5 L 19.001953 19 L 17.009766 19 L 16.371094 20.701172 L 16.261719 21 L 19 21 C 20.103 21 21 20.103 21 19 L 21 5 C 21 3.897 20.103 3 19 3 L 14.261719 3 z M 12.5 4 L 11.818359 5.8183594 L 10 6.5 L 11.818359 7.1816406 L 12.5 9 L 13.181641 7.1816406 L 15 6.5 L 13.181641 5.8183594 L 12.5 4 z M 6.5 11 L 5.8183594 12.818359 L 4 13.5 L 5.8183594 14.181641 L 6.5 16 L 7.1816406 14.181641 L 9 13.5 L 7.1816406 12.818359 L 6.5 11 z M 14.5 15 L 13.818359 16.818359 L 12 17.5 L 13.818359 18.181641 L 14.5 20 L 15.181641 18.181641 L 17 17.5 L 15.181641 16.818359 L 14.5 15 z M 3 15.261719 L 3 19 C 3 20.103 3.897 21 5 21 L 12.738281 21 L 12.626953 20.701172 L 11.988281 19 L 5 19 L 5 16.011719 L 3.2988281 15.373047 L 3 15.261719 z"/></svg>