<?xml version="1.0"?><svg fill="#1A1A1A" xmlns="http://www.w3.org/2000/svg"  viewBox="0 0 30 30" width="30px" height="30px">    <path d="M 4 4 A 1.0001 1.0001 0 1 0 4 6 L 4.8007812 6 L 12 15 L 18 15 L 25.199219 6 L 26 6 A 1.0001 1.0001 0 1 0 26 4 L 4 4 z M 23 16 C 19.134 16 16 19.134 16 23 C 16 26.866 19.134 30 23 30 C 26.866 30 30 26.866 30 23 C 30 19.134 26.866 16 23 16 z M 12 17 L 12 26 L 14.291016 25.236328 C 14.108016 24.520328 14 23.773 14 23 C 14 20.692 14.875687 18.593 16.304688 17 L 12 17 z M 21 20 C 21.25575 20 21.511531 20.097469 21.707031 20.292969 L 23 21.585938 L 24.292969 20.292969 C 24.683969 19.901969 25.316031 19.901969 25.707031 20.292969 C 26.098031 20.683969 26.098031 21.316031 25.707031 21.707031 L 24.414062 23 L 25.707031 24.292969 C 26.098031 24.683969 26.098031 25.316031 25.707031 25.707031 C 25.512031 25.902031 25.256 26 25 26 C 24.744 26 24.487969 25.902031 24.292969 25.707031 L 23 24.414062 L 21.707031 25.707031 C 21.512031 25.902031 21.256 26 21 26 C 20.744 26 20.487969 25.902031 20.292969 25.707031 C 19.901969 25.316031 19.901969 24.683969 20.292969 24.292969 L 21.585938 23 L 20.292969 21.707031 C 19.901969 21.316031 19.901969 20.683969 20.292969 20.292969 C 20.488469 20.097469 20.74425 20 21 20 z"/></svg>