<svg fill="#1A1A1A" xmlns="http://www.w3.org/2000/svg"  viewBox="0 0 50 50" width="25px" height="25px"><path d="M 17.722656 10 C 10.560656 10 10 10.560656 10 17.722656 L 10 32.277344 C 10 39.439344 10.560656 40 17.722656 40 L 32.277344 40 C 39.439344 40 40 39.439344 40 32.277344 L 40 17.769531 C 40 10.563531 39.436469 10 32.230469 10 L 17.722656 10 z M 17 11 L 33 11 C 38.565 11 39 11.435 39 17 L 39 33 C 39 38.565 38.565 39 33 39 L 17 39 C 11.435 39 11 38.565 11 33 L 11 17 C 11 11.435 11.435 11 17 11 z M 18.990234 18.490234 C 18.862234 18.490234 18.734219 18.539219 18.636719 18.636719 C 18.441719 18.831719 18.441719 19.14875 18.636719 19.34375 L 24.292969 25 L 18.636719 30.65625 C 18.441719 30.85125 18.441719 31.168281 18.636719 31.363281 C 18.831719 31.558281 19.14875 31.558281 19.34375 31.363281 L 25 25.707031 L 30.65625 31.363281 C 30.85125 31.558281 31.168281 31.558281 31.363281 31.363281 C 31.558281 31.168281 31.558281 30.85125 31.363281 30.65625 L 25.707031 25 L 31.363281 19.34375 C 31.558281 19.14875 31.558281 18.831719 31.363281 18.636719 C 31.168281 18.441719 30.85125 18.441719 30.65625 18.636719 L 25 24.292969 L 19.34375 18.636719 C 19.24625 18.539219 19.118234 18.490234 18.990234 18.490234 z"/></svg>