<svg fill="#1A1A1A" xmlns="http://www.w3.org/2000/svg"  viewBox="0 0 72 72" width="64px" height="64px"><path d="M53.513 64h-6.025C42.808 64 39 60.192 39 55.513v-6.025C39 44.808 42.808 41 47.487 41h6.025C58.192 41 62 44.808 62 49.487v6.025C62 60.192 58.192 64 53.513 64zM36 53c0 1.105-.895 2-2 2s-2-.895-2-2 .895-2 2-2S36 51.895 36 53zM29 53c0 1.105-.895 2-2 2s-2-.895-2-2 .895-2 2-2S29 51.895 29 53zM22 53c0 1.105-.895 2-2 2s-2-.895-2-2 .895-2 2-2S22 51.895 22 53zM22 46c0 1.105-.895 2-2 2s-2-.895-2-2 .895-2 2-2S22 44.895 22 46zM22 39c0 1.105-.895 2-2 2s-2-.895-2-2 .895-2 2-2S22 37.895 22 39zM23.496 34h-5.992C12.814 34 9 30.186 9 25.497v-5.993C9 14.814 12.814 11 17.504 11h5.992C28.186 11 32 14.814 32 19.503v5.993C32 30.186 28.186 34 23.496 34z"/></svg>