<svg fill="#1A1A1A" xmlns="http://www.w3.org/2000/svg"  viewBox="0 0 24 24" width="24px" height="24px"><path d="M 17 5 C 14.628533 5 12.532477 6.1899447 11.265625 8 L 4 8 C 1.794 8 0 9.794 0 12 C 0 14.206 1.794 16 4 16 L 11.265625 16 C 12.532477 17.810055 14.628533 19 17 19 C 20.859 19 24 15.859 24 12 C 24 8.141 20.859 5 17 5 z M 17 6.5 C 20.032 6.5 22.5 8.968 22.5 12 C 22.5 15.032 20.032 17.5 17 17.5 C 13.968 17.5 11.5 15.032 11.5 12 C 11.5 8.968 13.968 6.5 17 6.5 z M 17 9 C 15.346 9 14 10.346 14 12 C 14 13.654 15.346 15 17 15 C 18.654 15 20 13.654 20 12 C 20 10.346 18.654 9 17 9 z M 4 9.5 L 10.46875 9.5 C 10.169917 10.277606 10 11.118617 10 12 C 10 12.881383 10.169917 13.722394 10.46875 14.5 L 4 14.5 C 2.621 14.5 1.5 13.379 1.5 12 C 1.5 10.621 2.621 9.5 4 9.5 z M 17 10.5 C 17.827 10.5 18.5 11.173 18.5 12 C 18.5 12.827 17.827 13.5 17 13.5 C 16.173 13.5 15.5 12.827 15.5 12 C 15.5 11.173 16.173 10.5 17 10.5 z"/></svg>