<svg fill="#1A1A1A" xmlns="http://www.w3.org/2000/svg"  viewBox="0 0 24 24" width="24px" height="24px"><path d="M24 22.6l-1.8-1.8C22.7 20 23 19 23 18c0-2.8-2.2-5-5-5s-5 2.2-5 5 2.2 5 5 5c1 0 2-.3 2.8-.8l1.8 1.8L24 22.6zM18 21c-1.7 0-3-1.3-3-3s1.3-3 3-3 3 1.3 3 3S19.7 21 18 21zM18 11H7v2h6.106C14.368 11.764 16.094 11 18 11zM7 5H22V7H7zM3 16.5A1.5 1.5 0 1 0 3 19.5 1.5 1.5 0 1 0 3 16.5zM11 18c0-.34.033-.673.08-1H7v2h4.08C11.033 18.673 11 18.34 11 18zM3 4.5A1.5 1.5 0 1 0 3 7.5 1.5 1.5 0 1 0 3 4.5zM3 10.5A1.5 1.5 0 1 0 3 13.5 1.5 1.5 0 1 0 3 10.5z"/></svg>