<svg fill="#1A1A1A" xmlns="http://www.w3.org/2000/svg"  viewBox="0 0 50 50" width="50px" height="50px"><path d="M 10.5 12 C 8.57 12 7 13.57 7 15.5 L 7 32.5 C 7 34.43 8.57 36 10.5 36 C 10.5 36 24.479297 35.980469 34.029297 35.980469 C 34.289297 32.080469 38 28.000391 43 29.150391 L 43 15.5 C 43 13.57 41.43 12 39.5 12 L 10.5 12 z M 16 22 C 17.1 22 18 22.9 18 24 C 18 25.1 17.1 26 16 26 C 14.9 26 14 25.1 14 24 C 14 22.9 14.9 22 16 22 z M 25 22 C 26.1 22 27 22.9 27 24 C 27 25.1 26.1 26 25 26 C 23.9 26 23 25.1 23 24 C 23 22.9 23.9 22 25 22 z M 34 22 C 35.1 22 36 22.9 36 24 C 36 25.1 35.1 26 34 26 C 32.9 26 32 25.1 32 24 C 32 22.9 32.9 22 34 22 z M 41.5 30 C 37.91 30 35 32.91 35 36.5 C 35 40.09 37.91 43 41.5 43 C 45.09 43 48 40.09 48 36.5 C 48 32.91 45.09 30 41.5 30 z M 41.5 32 C 43.98 32 46 34.02 46 36.5 C 46 38.98 43.98 41 41.5 41 C 39.02 41 37 38.98 37 36.5 C 37 36.22 37.22 36 37.5 36 C 37.78 36 38 36.22 38 36.5 C 38 38.43 39.57 40 41.5 40 C 43.43 40 45 38.43 45 36.5 C 45 34.57 43.43 33 41.5 33 C 40.81 33 40.149844 33.200547 39.589844 33.560547 L 40.119141 34.089844 C 40.209141 34.179844 40.159297 34.339141 40.029297 34.369141 L 37.890625 34.779297 C 37.770625 34.809297 37.669453 34.699844 37.689453 34.589844 L 38.109375 32.449219 C 38.129375 32.309219 38.290625 32.269375 38.390625 32.359375 L 38.880859 32.849609 C 39.640859 32.299609 40.55 32 41.5 32 z"/></svg>