<svg fill="#1A1A1A" xmlns="http://www.w3.org/2000/svg"  viewBox="0 0 64 64" width="48px" height="48px"><path d="M50 32c1.104 0 2 .896 2 2v6c0 3.86-3.141 7-7 7H23v3.88c0 .894-1.004 1.42-1.739.912l-8.501-5.881c-.637-.441-.637-1.383 0-1.823l8.501-5.88C21.996 37.699 23 38.225 23 39.119V43h22c1.654 0 3-1.346 3-3v-6C48 32.896 48.896 32 50 32zM51.24 18.088c.637.441.637 1.383 0 1.823l-8.501 5.881C42.004 26.301 41 25.775 41 24.88V21H19c-1.654 0-3 1.346-3 3v6c0 1.104-.896 2-2 2s-2-.896-2-2v-6c0-3.86 3.141-7 7-7h22v-3.881c0-.894 1.004-1.42 1.739-.912L51.24 18.088z"/></svg>