<?xml version="1.0"?><svg fill="#1A1A1A" xmlns="http://www.w3.org/2000/svg"  viewBox="0 0 24 24" width="24px" height="24px">    <path d="M 17 2 A 2 2 0 0 0 15 4 A 2 2 0 0 0 17 6 A 2 2 0 0 0 19 4 A 2 2 0 0 0 17 2 z M 10.654297 5.0039062 C 10.528297 5.0157812 10.405516 5.0523281 10.291016 5.1113281 L 7.3046875 6.6523438 C 6.8136875 6.9053438 6.622 7.509 6.875 8 L 6.875 8.0019531 C 7.128 8.4929531 7.7316563 8.6846406 8.2226562 8.4316406 L 10.851562 7.0742188 L 12.068359 7.4335938 L 10.267578 11.003906 A 2 2 0 0 0 10 12 A 2 2 0 0 0 10.746094 13.554688 L 13.849609 16.447266 L 12.304688 20.644531 C 12.112687 21.162531 12.376531 21.737688 12.894531 21.929688 C 13.412531 22.121688 13.988687 21.857844 14.179688 21.339844 L 15.970703 16.503906 C 16.077703 16.214906 16.045812 15.892859 15.882812 15.630859 L 13.966797 12.535156 L 15.287109 9.8964844 L 16.423828 11.564453 C 16.610828 11.837453 16.92 12 17.25 12 L 20 12 C 20.552 12 21 11.552 21 11 C 21 10.448 20.552 10 20 10 L 17.777344 10 L 15.730469 6.9960938 L 15.724609 6.9921875 A 2 2 0 0 0 14.453125 6.0546875 L 14.449219 6.0507812 L 11.033203 5.0410156 C 10.909703 5.0045156 10.780297 4.9920313 10.654297 5.0039062 z M 9.4414062 14.400391 L 8.8789062 15 L 5 15 C 4.448 15 4 15.448 4 16 C 4 16.552 4.448 17 5 17 L 9.3125 17 C 9.5895 17 9.8539687 16.884594 10.042969 16.683594 L 10.900391 15.767578 L 9.4414062 14.400391 z"/></svg>