<svg fill="#1A1A1A" xmlns="http://www.w3.org/2000/svg"  viewBox="0 0 64 64" width="48px" height="48px"><path d="M53 51H11c-1.104 0-2-.896-2-2s.896-2 2-2h42c1.104 0 2 .896 2 2S54.104 51 53 51zM53 42H11c-1.104 0-2-.896-2-2s.896-2 2-2h42c1.104 0 2 .896 2 2S54.104 42 53 42zM53 33H11c-1.104 0-2-.896-2-2s.896-2 2-2h42c1.104 0 2 .896 2 2S54.104 33 53 33zM41.495 20.671c.522.588.652 1.43.329 2.148C41.502 23.538 40.787 24 40 24H24c-.787 0-1.502-.462-1.824-1.181-.323-.718-.193-1.56.329-2.148l8-9c.76-.854 2.23-.854 2.99 0L41.495 20.671z"/></svg>