<svg fill="#1A1A1A" xmlns="http://www.w3.org/2000/svg"  viewBox="0 0 48 48" width="48px" height="48px"><path d="M 24 6 C 22.807559 6 21.664511 6.1635449 20.582031 6.4355469 A 1.50015 1.50015 0 0 0 19.466797 7.6484375 L 19.236328 9.0546875 C 19.151818 9.5709093 18.841961 10.019613 18.388672 10.28125 C 17.934652 10.543309 17.392892 10.587247 16.904297 10.402344 A 1.50015 1.50015 0 0 0 16.902344 10.402344 L 15.564453 9.8964844 A 1.50015 1.50015 0 0 0 13.958984 10.255859 C 12.368407 11.894602 11.181435 13.920591 10.541016 16.177734 A 1.50015 1.50015 0 0 0 11.033203 17.748047 L 12.138672 18.652344 C 12.544167 18.984505 12.777344 19.47656 12.777344 20 C 12.777344 20.52344 12.544468 21.017386 12.140625 21.347656 L 11.033203 22.251953 A 1.50015 1.50015 0 0 0 10.541016 23.822266 C 11.181561 26.079851 12.369901 28.105783 13.958984 29.744141 A 1.50015 1.50015 0 0 0 15.566406 30.103516 L 16.902344 29.597656 C 17.390599 29.412882 17.934797 29.455639 18.386719 29.716797 C 18.839645 29.978536 19.15198 30.430093 19.236328 30.945312 L 19.464844 32.349609 A 1.50015 1.50015 0 0 0 20.580078 33.5625 C 21.66412 33.835723 22.807559 34 24 34 C 25.192441 34 26.335489 33.836455 27.417969 33.564453 A 1.50015 1.50015 0 0 0 28.533203 32.351562 L 28.763672 30.945312 C 28.848182 30.429091 29.158039 29.980387 29.611328 29.71875 C 30.065348 29.456691 30.607108 29.412753 31.095703 29.597656 L 32.433594 30.103516 A 1.50015 1.50015 0 0 0 34.041016 29.746094 C 35.631593 28.107351 36.818565 26.081362 37.458984 23.824219 A 1.50015 1.50015 0 0 0 36.964844 22.253906 L 35.859375 21.347656 C 35.45388 21.015495 35.220703 20.525393 35.220703 20.001953 C 35.220703 19.478513 35.455532 18.984567 35.859375 18.654297 L 36.966797 17.748047 A 1.50015 1.50015 0 0 0 37.458984 16.177734 C 36.817491 13.916807 35.621502 11.893639 34.037109 10.257812 A 1.50015 1.50015 0 0 0 32.429688 9.8984375 L 31.097656 10.402344 C 30.609401 10.587118 30.065203 10.544361 29.613281 10.283203 A 1.50015 1.50015 0 0 0 29.611328 10.28125 C 29.158528 10.019895 28.848577 9.5721598 28.763672 9.0566406 L 28.763672 9.0546875 L 28.533203 7.6367188 A 1.50015 1.50015 0 0 0 27.419922 6.4238281 C 26.32463 6.1472053 25.178356 6 24 6 z M 24 9 C 24.604451 9 25.173326 9.1223523 25.75 9.2167969 L 25.802734 9.5390625 A 1.50015 1.50015 0 0 0 25.802734 9.5410156 C 26.032223 10.942794 26.880617 12.170497 28.111328 12.880859 L 28.111328 12.878906 C 29.341407 13.589748 30.828458 13.71221 32.158203 13.208984 L 32.453125 13.097656 C 33.194187 14.004968 33.781763 15.019251 34.205078 16.130859 L 33.958984 16.332031 C 32.858827 17.231761 32.220703 18.581393 32.220703 20.001953 C 32.220703 21.422513 32.86048 22.770083 33.958984 23.669922 L 34.205078 23.871094 C 33.782393 24.984601 33.19511 26.000027 32.455078 26.90625 L 32.158203 26.792969 C 30.828799 26.289872 29.341308 26.411153 28.111328 27.121094 C 26.880617 27.831457 26.032223 29.059158 25.802734 30.460938 L 25.751953 30.775391 C 25.172346 30.873589 24.598115 31 24 31 C 23.401885 31 22.827635 30.873742 22.248047 30.775391 L 22.197266 30.458984 C 21.967613 29.056204 21.117745 27.831355 19.888672 27.121094 C 18.658593 26.410252 17.171542 26.28779 15.841797 26.791016 L 15.542969 26.904297 C 14.803146 25.997801 14.21758 24.982513 13.794922 23.869141 L 14.039062 23.667969 C 15.138473 22.76824 15.777344 21.420035 15.777344 20 C 15.777344 18.57944 15.13952 17.23187 14.041016 16.332031 A 1.50015 1.50015 0 0 0 14.039062 16.332031 L 13.794922 16.130859 C 14.21746 15.017378 14.803109 14.001955 15.542969 13.095703 L 15.841797 13.207031 C 17.171201 13.710128 18.658692 13.588847 19.888672 12.878906 C 21.119383 12.168543 21.967777 10.940841 22.197266 9.5390625 L 22.248047 9.2246094 C 22.827704 9.1264608 23.401885 9 24 9 z M 24 14 C 22.125 14 20.528815 14.757133 19.503906 15.910156 C 18.478997 17.063179 18 18.541667 18 20 C 18 21.458333 18.478997 22.936821 19.503906 24.089844 C 20.528815 25.242867 22.125 26 24 26 C 25.875 26 27.471185 25.242867 28.496094 24.089844 C 29.521003 22.936821 30 21.458333 30 20 C 30 18.541667 29.521003 17.063179 28.496094 15.910156 C 27.471185 14.757133 25.875 14 24 14 z M 24 17 C 25.124999 17 25.778816 17.367867 26.253906 17.902344 C 26.728997 18.436821 27 19.208333 27 20 C 27 20.791667 26.728997 21.563179 26.253906 22.097656 C 25.778816 22.632133 25.124999 23 24 23 C 22.875001 23 22.221184 22.632133 21.746094 22.097656 C 21.271003 21.563179 21 20.791667 21 20 C 21 19.208333 21.271003 18.436821 21.746094 17.902344 C 22.221184 17.367867 22.875001 17 24 17 z M 7.4765625 31.978516 A 1.50015 1.50015 0 0 0 6 33.5 L 6 36.5 C 6 39.519774 8.4802259 42 11.5 42 L 36.5 42 C 39.519774 42 42 39.519774 42 36.5 L 42 33.5 A 1.50015 1.50015 0 1 0 39 33.5 L 39 36.5 C 39 37.898226 37.898226 39 36.5 39 L 11.5 39 C 10.101774 39 9 37.898226 9 36.5 L 9 33.5 A 1.50015 1.50015 0 0 0 7.4765625 31.978516 z"/></svg>